<svg width="1777" height="276" viewBox="0 0 1777 276" fill="none" xmlns="http://www.w3.org/2000/svg">
<g id="Graphic Side">
<g clip-path="url(#clip0_1_83)">
<path d="M0 0H1777V260C1777 268.837 1769.84 276 1761 276H16C7.16344 276 0 268.837 0 260V0Z" fill="url(#paint0_radial_1_83)"/>
<g id="Big Circles">
<g id="Ellipse 5" style="mix-blend-mode:multiply" opacity="0.75" filter="url(#filter0_i_1_83)">
<ellipse cx="884" cy="823.307" rx="1056.31" ry="1078" transform="rotate(90 884 823.307)" fill="white"/>
</g>
<g id="Ellipse 4" style="mix-blend-mode:multiply" opacity="0.75" filter="url(#filter1_i_1_83)">
<ellipse cx="641.164" cy="823.307" rx="817.689" ry="835.164" transform="rotate(90 641.164 823.307)" fill="white"/>
</g>
<g id="Ellipse 3" style="mix-blend-mode:multiply" opacity="0.75" filter="url(#filter2_i_1_83)">
<ellipse cx="609.228" cy="901.642" rx="694.765" ry="709.226" transform="rotate(90 609.228 901.642)" fill="white"/>
</g>
</g>
<g id="Frame 35289">
<g id="Frame 35288">
<path id="Hello, Elizabeth" d="M64.8455 118V101.273H67.3693V108.542H75.7085V101.273H78.2404V118H75.7085V110.706H67.3693V118H64.8455ZM87.1268 118.253C85.8907 118.253 84.8262 117.989 83.9332 117.461C83.0457 116.927 82.3596 116.179 81.875 115.215C81.3958 114.246 81.1562 113.11 81.1562 111.809C81.1562 110.524 81.3958 109.391 81.875 108.411C82.3596 107.431 83.0348 106.666 83.9006 106.116C84.7718 105.566 85.79 105.291 86.9553 105.291C87.6631 105.291 88.3492 105.408 89.0135 105.642C89.6778 105.877 90.274 106.244 90.8022 106.745C91.3304 107.246 91.7469 107.897 92.0518 108.697C92.3568 109.492 92.5092 110.459 92.5092 111.597V112.462H82.5366V110.633H90.1161C90.1161 109.99 89.9854 109.421 89.7241 108.926C89.4627 108.425 89.0952 108.03 88.6214 107.741C88.1532 107.453 87.6032 107.309 86.9716 107.309C86.2855 107.309 85.6866 107.477 85.1747 107.815C84.6683 108.147 84.2763 108.583 83.9986 109.122C83.7263 109.655 83.5902 110.235 83.5902 110.862V112.291C83.5902 113.129 83.7372 113.843 84.0312 114.431C84.3307 115.019 84.7473 115.468 85.2809 115.778C85.8145 116.083 86.438 116.236 87.1513 116.236C87.6141 116.236 88.0361 116.17 88.4173 116.04C88.7984 115.904 89.1278 115.702 89.4055 115.435C89.6832 115.169 89.8956 114.839 90.0426 114.447L92.354 114.864C92.1689 115.544 91.8368 116.141 91.3576 116.652C90.8839 117.159 90.2876 117.554 89.5689 117.837C88.8556 118.114 88.0415 118.253 87.1268 118.253ZM97.661 101.273V118H95.2188V101.273H97.661ZM103.388 101.273V118H100.946V101.273H103.388ZM111.958 118.253C110.782 118.253 109.756 117.984 108.879 117.445C108.003 116.906 107.322 116.151 106.837 115.182C106.353 114.213 106.11 113.08 106.11 111.784C106.11 110.483 106.353 109.345 106.837 108.37C107.322 107.396 108.003 106.639 108.879 106.1C109.756 105.561 110.782 105.291 111.958 105.291C113.134 105.291 114.161 105.561 115.038 106.1C115.914 106.639 116.595 107.396 117.079 108.37C117.564 109.345 117.806 110.483 117.806 111.784C117.806 113.08 117.564 114.213 117.079 115.182C116.595 116.151 115.914 116.906 115.038 117.445C114.161 117.984 113.134 118.253 111.958 118.253ZM111.967 116.203C112.729 116.203 113.36 116.002 113.861 115.599C114.362 115.196 114.733 114.659 114.972 113.99C115.217 113.32 115.34 112.582 115.34 111.776C115.34 110.976 115.217 110.241 114.972 109.571C114.733 108.896 114.362 108.354 113.861 107.946C113.36 107.537 112.729 107.333 111.967 107.333C111.199 107.333 110.562 107.537 110.055 107.946C109.554 108.354 109.181 108.896 108.936 109.571C108.697 110.241 108.577 110.976 108.577 111.776C108.577 112.582 108.697 113.32 108.936 113.99C109.181 114.659 109.554 115.196 110.055 115.599C110.562 116.002 111.199 116.203 111.967 116.203ZM123.71 115.713L123.587 116.603C123.505 117.257 123.366 117.937 123.17 118.645C122.98 119.359 122.781 120.02 122.574 120.63C122.373 121.24 122.207 121.724 122.076 122.084H120.344C120.415 121.746 120.513 121.289 120.638 120.712C120.764 120.14 120.886 119.5 121.006 118.792C121.126 118.084 121.216 117.363 121.276 116.628L121.357 115.713H123.71ZM133.172 118V101.273H143.659V103.445H135.695V108.542H143.112V110.706H135.695V115.827H143.757V118H133.172ZM149.276 101.273V118H146.834V101.273H149.276ZM152.562 118V105.455H155.004V118H152.562ZM153.795 103.519C153.37 103.519 153.005 103.377 152.7 103.094C152.401 102.806 152.251 102.462 152.251 102.065C152.251 101.662 152.401 101.319 152.7 101.036C153.005 100.747 153.37 100.603 153.795 100.603C154.22 100.603 154.582 100.747 154.881 101.036C155.186 101.319 155.339 101.662 155.339 102.065C155.339 102.462 155.186 102.806 154.881 103.094C154.582 103.377 154.22 103.519 153.795 103.519ZM158.028 118V116.326L164.823 107.692V107.578H158.248V105.455H167.87V107.235L161.336 115.762V115.876H168.098V118H158.028ZM174.631 118.278C173.836 118.278 173.117 118.131 172.474 117.837C171.832 117.537 171.323 117.104 170.947 116.538C170.577 115.972 170.392 115.277 170.392 114.455C170.392 113.747 170.528 113.165 170.8 112.707C171.072 112.25 171.44 111.888 171.903 111.621C172.365 111.354 172.883 111.153 173.454 111.017C174.026 110.881 174.609 110.777 175.202 110.706C175.954 110.619 176.564 110.548 177.032 110.494C177.5 110.434 177.84 110.339 178.053 110.208C178.265 110.077 178.371 109.865 178.371 109.571V109.514C178.371 108.801 178.17 108.248 177.767 107.856C177.369 107.464 176.776 107.268 175.986 107.268C175.164 107.268 174.516 107.45 174.042 107.815C173.574 108.174 173.25 108.575 173.07 109.016L170.775 108.493C171.048 107.731 171.445 107.115 171.968 106.647C172.496 106.173 173.103 105.83 173.789 105.618C174.475 105.4 175.197 105.291 175.954 105.291C176.455 105.291 176.985 105.351 177.546 105.471C178.113 105.585 178.641 105.798 179.131 106.108C179.626 106.418 180.032 106.862 180.348 107.439C180.664 108.011 180.822 108.754 180.822 109.669V118H178.437V116.285H178.339C178.181 116.601 177.944 116.911 177.628 117.216C177.312 117.521 176.907 117.774 176.411 117.975C175.916 118.177 175.322 118.278 174.631 118.278ZM175.161 116.317C175.837 116.317 176.414 116.184 176.893 115.917C177.378 115.65 177.745 115.302 177.996 114.872C178.251 114.436 178.379 113.971 178.379 113.475V111.858C178.292 111.945 178.124 112.027 177.873 112.103C177.628 112.174 177.348 112.236 177.032 112.291C176.716 112.34 176.408 112.386 176.109 112.43C175.809 112.468 175.559 112.5 175.357 112.528C174.884 112.588 174.451 112.688 174.059 112.83C173.672 112.971 173.362 113.176 173.128 113.442C172.899 113.704 172.785 114.052 172.785 114.488C172.785 115.092 173.008 115.55 173.454 115.86C173.901 116.165 174.47 116.317 175.161 116.317ZM184.27 118V101.273H186.712V107.488H186.859C187.001 107.227 187.205 106.925 187.472 106.582C187.739 106.239 188.109 105.939 188.583 105.683C189.057 105.422 189.683 105.291 190.461 105.291C191.474 105.291 192.378 105.547 193.173 106.059C193.968 106.571 194.591 107.309 195.043 108.272C195.501 109.236 195.729 110.396 195.729 111.752C195.729 113.108 195.504 114.27 195.052 115.239C194.6 116.203 193.979 116.946 193.189 117.469C192.4 117.986 191.499 118.245 190.486 118.245C189.724 118.245 189.1 118.117 188.616 117.861C188.136 117.605 187.761 117.306 187.488 116.963C187.216 116.62 187.006 116.315 186.859 116.048H186.655V118H184.27ZM186.663 111.727C186.663 112.609 186.791 113.383 187.047 114.047C187.303 114.711 187.674 115.231 188.158 115.607C188.643 115.977 189.236 116.162 189.939 116.162C190.668 116.162 191.278 115.969 191.768 115.582C192.258 115.19 192.629 114.659 192.879 113.99C193.135 113.32 193.263 112.566 193.263 111.727C193.263 110.9 193.138 110.156 192.887 109.498C192.642 108.839 192.272 108.319 191.776 107.938C191.286 107.556 190.674 107.366 189.939 107.366C189.231 107.366 188.632 107.548 188.142 107.913C187.657 108.278 187.29 108.787 187.039 109.44C186.789 110.094 186.663 110.856 186.663 111.727ZM203.879 118.253C202.643 118.253 201.578 117.989 200.685 117.461C199.798 116.927 199.112 116.179 198.627 115.215C198.148 114.246 197.908 113.11 197.908 111.809C197.908 110.524 198.148 109.391 198.627 108.411C199.112 107.431 199.787 106.666 200.653 106.116C201.524 105.566 202.542 105.291 203.707 105.291C204.415 105.291 205.101 105.408 205.765 105.642C206.43 105.877 207.026 106.244 207.554 106.745C208.082 107.246 208.499 107.897 208.804 108.697C209.109 109.492 209.261 110.459 209.261 111.597V112.462H199.289V110.633H206.868C206.868 109.99 206.737 109.421 206.476 108.926C206.215 108.425 205.847 108.03 205.373 107.741C204.905 107.453 204.355 107.309 203.724 107.309C203.037 107.309 202.439 107.477 201.927 107.815C201.42 108.147 201.028 108.583 200.751 109.122C200.478 109.655 200.342 110.235 200.342 110.862V112.291C200.342 113.129 200.489 113.843 200.783 114.431C201.083 115.019 201.499 115.468 202.033 115.778C202.566 116.083 203.19 116.236 203.903 116.236C204.366 116.236 204.788 116.17 205.169 116.04C205.55 115.904 205.88 115.702 206.157 115.435C206.435 115.169 206.648 114.839 206.795 114.447L209.106 114.864C208.921 115.544 208.589 116.141 208.11 116.652C207.636 117.159 207.04 117.554 206.321 117.837C205.608 118.114 204.794 118.253 203.879 118.253ZM217.827 105.455V107.415H210.974V105.455H217.827ZM212.812 102.449H215.254V114.316C215.254 114.79 215.325 115.147 215.467 115.386C215.608 115.621 215.791 115.781 216.014 115.868C216.242 115.95 216.49 115.991 216.757 115.991C216.953 115.991 217.125 115.977 217.272 115.95C217.419 115.923 217.533 115.901 217.615 115.885L218.056 117.902C217.914 117.956 217.713 118.011 217.451 118.065C217.19 118.125 216.863 118.158 216.471 118.163C215.829 118.174 215.23 118.06 214.674 117.82C214.119 117.581 213.67 117.21 213.327 116.71C212.984 116.209 212.812 115.58 212.812 114.823V102.449ZM223.24 110.551V118H220.798V101.273H223.207V107.496H223.363C223.657 106.821 224.106 106.285 224.71 105.887C225.315 105.49 226.104 105.291 227.079 105.291C227.939 105.291 228.691 105.468 229.333 105.822C229.981 106.176 230.482 106.704 230.836 107.407C231.195 108.104 231.375 108.975 231.375 110.02V118H228.933V110.314C228.933 109.394 228.696 108.681 228.222 108.174C227.749 107.663 227.09 107.407 226.246 107.407C225.669 107.407 225.151 107.529 224.694 107.774C224.242 108.019 223.885 108.379 223.624 108.852C223.368 109.321 223.24 109.887 223.24 110.551Z" fill="white"/>
</g>
</g>
<g id="Frame 1239">
<rect x="1538" y="105" width="210" height="40" rx="4" fill="#3A57E8" fill-opacity="0.35"/>
<g id="Iconly/Bulk/Voice 3">
<g id="Voice 2">
<path id="Fill 1" d="M1573.83 128.217H1574.17C1576.1 128.217 1577.73 126.985 1578.31 125.276C1578.39 125.028 1578.2 124.771 1577.93 124.771H1576.86C1576.51 124.771 1576.24 124.498 1576.24 124.16C1576.24 123.821 1576.51 123.547 1576.86 123.547H1577.9C1578.25 123.547 1578.53 123.27 1578.53 122.929C1578.53 122.587 1578.25 122.311 1577.9 122.311H1576.86C1576.51 122.311 1576.24 122.036 1576.24 121.698C1576.24 121.36 1576.51 121.085 1576.86 121.085H1577.9C1578.25 121.085 1578.53 120.809 1578.53 120.467C1578.53 120.126 1578.25 119.849 1577.9 119.849H1576.86C1576.51 119.849 1576.24 119.575 1576.24 119.236C1576.24 118.898 1576.51 118.624 1576.86 118.624H1577.99C1578.25 118.624 1578.43 118.379 1578.36 118.131C1577.85 116.324 1576.17 115 1574.17 115H1573.83C1571.42 115 1569.47 116.923 1569.47 119.297V123.92C1569.47 126.293 1571.42 128.217 1573.83 128.217Z" fill="white"/>
<path id="Fill 3" opacity="0.4" d="M1581.53 122.826C1581 122.826 1580.56 123.253 1580.56 123.782C1580.56 127.355 1577.62 130.263 1574 130.263C1570.38 130.263 1567.44 127.355 1567.44 123.782C1567.44 123.253 1567 122.826 1566.47 122.826C1565.93 122.826 1565.5 123.253 1565.5 123.782C1565.5 128.087 1568.8 131.641 1573.03 132.119V134.043C1573.03 134.571 1573.46 135 1574 135C1574.54 135 1574.97 134.571 1574.97 134.043V132.119C1579.2 131.641 1582.5 128.087 1582.5 123.782C1582.5 123.253 1582.07 122.826 1581.53 122.826Z" fill="white"/>
</g>
</g>
<path id="Announcments" d="M1604.25 130L1605.42 126.705H1610.13L1611.3 130H1612.78L1608.5 118.364H1607.05L1602.78 130H1604.25ZM1605.87 125.455L1607.73 120.205H1607.82L1609.69 125.455H1605.87ZM1615.75 124.75C1615.75 123.227 1616.69 122.364 1617.98 122.364C1619.22 122.364 1619.98 123.176 1619.98 124.545V130H1621.32V124.455C1621.32 122.227 1620.13 121.159 1618.36 121.159C1617.04 121.159 1616.23 121.75 1615.82 122.636H1615.7V121.273H1614.41V130H1615.75V124.75ZM1625.11 124.75C1625.11 123.227 1626.05 122.364 1627.33 122.364C1628.58 122.364 1629.33 123.176 1629.33 124.545V130H1630.68V124.455C1630.68 122.227 1629.49 121.159 1627.72 121.159C1626.4 121.159 1625.58 121.75 1625.18 122.636H1625.06V121.273H1623.77V130H1625.11V124.75ZM1636.67 130.182C1639.03 130.182 1640.63 128.386 1640.63 125.682C1640.63 122.955 1639.03 121.159 1636.67 121.159C1634.31 121.159 1632.72 122.955 1632.72 125.682C1632.72 128.386 1634.31 130.182 1636.67 130.182ZM1636.67 128.977C1634.88 128.977 1634.06 127.432 1634.06 125.682C1634.06 123.932 1634.88 122.364 1636.67 122.364C1638.47 122.364 1639.28 123.932 1639.28 125.682C1639.28 127.432 1638.47 128.977 1636.67 128.977ZM1648.17 126.432C1648.17 128.068 1646.92 128.818 1645.92 128.818C1644.81 128.818 1644.01 128 1644.01 126.727V121.273H1642.67V126.818C1642.67 129.045 1643.85 130.114 1645.49 130.114C1646.81 130.114 1647.67 129.409 1648.08 128.523H1648.17V130H1649.51V121.273H1648.17V126.432ZM1653.31 124.75C1653.31 123.227 1654.25 122.364 1655.54 122.364C1656.78 122.364 1657.54 123.176 1657.54 124.545V130H1658.88V124.455C1658.88 122.227 1657.69 121.159 1655.92 121.159C1654.61 121.159 1653.79 121.75 1653.38 122.636H1653.26V121.273H1651.97V130H1653.31V124.75ZM1664.87 130.182C1666.81 130.182 1668.08 129 1668.31 127.455H1666.97C1666.72 128.409 1665.92 128.977 1664.87 128.977C1663.28 128.977 1662.26 127.659 1662.26 125.636C1662.26 123.659 1663.31 122.364 1664.87 122.364C1666.06 122.364 1666.76 123.091 1666.97 123.886H1668.31C1668.08 122.25 1666.69 121.159 1664.85 121.159C1662.49 121.159 1660.92 123.023 1660.92 125.682C1660.92 128.295 1662.42 130.182 1664.87 130.182ZM1670.27 130H1671.61V124.545C1671.61 123.267 1672.54 122.364 1673.58 122.364C1674.6 122.364 1675.31 123.028 1675.31 124.023V130H1676.68V124.318C1676.68 123.193 1677.38 122.364 1678.61 122.364C1679.56 122.364 1680.38 122.869 1680.38 124.159V130H1681.72V124.159C1681.72 122.108 1680.62 121.159 1679.06 121.159C1677.81 121.159 1676.9 121.733 1676.45 122.636H1676.36C1675.93 121.705 1675.16 121.159 1674.02 121.159C1672.88 121.159 1672.04 121.705 1671.68 122.636H1671.56V121.273H1670.27V130ZM1687.83 130.182C1689.6 130.182 1690.9 129.295 1691.31 127.977L1690.01 127.614C1689.67 128.523 1688.88 128.977 1687.83 128.977C1686.26 128.977 1685.17 127.96 1685.11 126.091H1691.45V125.523C1691.45 122.273 1689.51 121.159 1687.7 121.159C1685.33 121.159 1683.76 123.023 1683.76 125.705C1683.76 128.386 1685.31 130.182 1687.83 130.182ZM1685.11 124.932C1685.2 123.574 1686.16 122.364 1687.7 122.364C1689.15 122.364 1690.08 123.455 1690.08 124.932H1685.11ZM1694.83 124.75C1694.83 123.227 1695.77 122.364 1697.05 122.364C1698.3 122.364 1699.05 123.176 1699.05 124.545V130H1700.39V124.455C1700.39 122.227 1699.21 121.159 1697.44 121.159C1696.12 121.159 1695.3 121.75 1694.89 122.636H1694.78V121.273H1693.49V130H1694.83V124.75ZM1706.64 121.273H1704.78V119.182H1703.44V121.273H1702.12V122.409H1703.44V127.864C1703.44 129.386 1704.66 130.114 1705.8 130.114C1706.3 130.114 1706.62 130.023 1706.8 129.955L1706.53 128.75C1706.41 128.773 1706.23 128.818 1705.94 128.818C1705.34 128.818 1704.78 128.636 1704.78 127.5V122.409H1706.64V121.273ZM1714.68 123.227C1714.26 121.989 1713.32 121.159 1711.59 121.159C1709.75 121.159 1708.39 122.205 1708.39 123.682C1708.39 124.886 1709.1 125.693 1710.71 126.068L1712.16 126.409C1713.04 126.614 1713.46 127.034 1713.46 127.636C1713.46 128.386 1712.66 129 1711.41 129C1710.31 129 1709.63 128.528 1709.39 127.591L1708.11 127.909C1708.43 129.392 1709.65 130.182 1711.43 130.182C1713.46 130.182 1714.84 129.074 1714.84 127.568C1714.84 126.352 1714.08 125.585 1712.52 125.205L1711.23 124.886C1710.19 124.631 1709.73 124.284 1709.73 123.614C1709.73 122.864 1710.52 122.318 1711.59 122.318C1712.76 122.318 1713.25 122.966 1713.48 123.568L1714.68 123.227Z" fill="white"/>
</g>
</g>
</g>
<defs>
<filter id="filter0_i_1_83" x="-194" y="-233" width="2180" height="2144.61" filterUnits="userSpaceOnUse" color-interpolation-filters="sRGB">
<feFlood flood-opacity="0" result="BackgroundImageFix"/>
<feBlend mode="normal" in="SourceGraphic" in2="BackgroundImageFix" result="shape"/>
<feColorMatrix in="SourceAlpha" type="matrix" values="0 0 0 0 0 0 0 0 0 0 0 0 0 0 0 0 0 0 127 0" result="hardAlpha"/>
<feMorphology radius="24" operator="erode" in="SourceAlpha" result="effect1_innerShadow_1_83"/>
<feOffset dx="24" dy="32"/>
<feGaussianBlur stdDeviation="92"/>
<feComposite in2="hardAlpha" operator="arithmetic" k2="-1" k3="1"/>
<feColorMatrix type="matrix" values="0 0 0 0 0.0235294 0 0 0 0 0.0313726 0 0 0 0 0.34902 0 0 0 0.75 0"/>
<feBlend mode="normal" in2="shape" result="effect1_innerShadow_1_83"/>
</filter>
<filter id="filter1_i_1_83" x="-194" y="5.61829" width="1694.33" height="1667.38" filterUnits="userSpaceOnUse" color-interpolation-filters="sRGB">
<feFlood flood-opacity="0" result="BackgroundImageFix"/>
<feBlend mode="normal" in="SourceGraphic" in2="BackgroundImageFix" result="shape"/>
<feColorMatrix in="SourceAlpha" type="matrix" values="0 0 0 0 0 0 0 0 0 0 0 0 0 0 0 0 0 0 127 0" result="hardAlpha"/>
<feMorphology radius="24" operator="erode" in="SourceAlpha" result="effect1_innerShadow_1_83"/>
<feOffset dx="24" dy="32"/>
<feGaussianBlur stdDeviation="92"/>
<feComposite in2="hardAlpha" operator="arithmetic" k2="-1" k3="1"/>
<feColorMatrix type="matrix" values="0 0 0 0 0.0235294 0 0 0 0 0.0313726 0 0 0 0 0.34902 0 0 0 0.75 0"/>
<feBlend mode="normal" in2="shape" result="effect1_innerShadow_1_83"/>
</filter>
<filter id="filter2_i_1_83" x="-99.9988" y="206.877" width="1442.45" height="1421.53" filterUnits="userSpaceOnUse" color-interpolation-filters="sRGB">
<feFlood flood-opacity="0" result="BackgroundImageFix"/>
<feBlend mode="normal" in="SourceGraphic" in2="BackgroundImageFix" result="shape"/>
<feColorMatrix in="SourceAlpha" type="matrix" values="0 0 0 0 0 0 0 0 0 0 0 0 0 0 0 0 0 0 127 0" result="hardAlpha"/>
<feMorphology radius="24" operator="erode" in="SourceAlpha" result="effect1_innerShadow_1_83"/>
<feOffset dx="24" dy="32"/>
<feGaussianBlur stdDeviation="92"/>
<feComposite in2="hardAlpha" operator="arithmetic" k2="-1" k3="1"/>
<feColorMatrix type="matrix" values="0 0 0 0 0.0235294 0 0 0 0 0.0313726 0 0 0 0 0.34902 0 0 0 0.75 0"/>
<feBlend mode="normal" in2="shape" result="effect1_innerShadow_1_83"/>
</filter>
<radialGradient id="paint0_radial_1_83" cx="0" cy="0" r="1" gradientUnits="userSpaceOnUse" gradientTransform="translate(888.5 138) rotate(90) scale(416.556 644.776)">
<stop stop-color="#3B8AFF"/>
<stop offset="1" stop-color="#0048B3"/>
</radialGradient>
<clipPath id="clip0_1_83">
<path d="M0 0H1777V260C1777 268.837 1769.84 276 1761 276H16C7.16344 276 0 268.837 0 260V0Z" fill="white"/>
</clipPath>
</defs>
</svg>
